<svg width="61" height="29" viewBox="0 0 61 29" fill="none" xmlns="http://www.w3.org/2000/svg">
<path d="M8.26016 5.22858L8.26917 5.18088L8.29321 4.97983L7.18166 4.97302C6.17827 4.9662 5.87034 4.97302 5.8433 5.00198C5.82978 5.01561 5.4828 6.50981 4.86545 9.21539C4.57104 10.5068 4.32319 11.5376 4.31418 11.507C4.30517 11.4763 3.95368 10.0025 3.53009 8.23232C3.27648 7.14999 3.0141 6.07032 2.743 4.99346C2.72798 4.97642 1.38211 4.96961 0.291594 4.97983C0.133875 4.98154 0.0452516 4.63056 1.70055 10.6006C1.92887 11.4269 2.27285 12.5974 2.46211 13.2005C2.68141 13.8956 2.83763 14.434 2.94428 14.8821C3.13354 15.7357 3.13955 16.2707 3.09899 16.896C3.05093 17.6167 3.04492 22.7109 3.09148 22.7961C3.12753 22.8609 5.23195 22.8915 5.43173 22.8302C5.46328 22.82 5.4843 22.7859 5.49933 22.5934C5.54889 22.4281 5.5534 21.7687 5.5534 19.0325V15.5381L5.68859 15.0559C5.77721 14.7407 5.99802 13.911 6.18127 13.2124L6.67245 11.3553C7.46706 8.41803 8.22411 5.53015 8.24514 5.36488L8.26166 5.23029L8.26016 5.22858ZM20.0455 9.46755V9.64985H20.02L20.0065 14.6811L19.993 19.559L19.649 19.9559C19.2629 20.4006 18.955 20.571 18.6756 20.4909C18.3707 20.404 18.3797 20.5386 18.3542 14.7731L18.3301 9.46585H16.1161V9.64815H16.0905V15.4069C16.0905 21.5762 16.0905 21.5728 16.3669 22.1913C16.5862 22.6854 16.9077 22.9256 17.4559 23.0074C18.1784 23.1164 18.958 22.745 19.6805 21.9476L19.9945 21.6018V22.1998C19.9945 22.716 20.008 22.8012 20.0906 22.8268C20.2258 22.8694 21.9021 22.8728 22.0824 22.8302L22.2326 22.7944V22.6172L22.2581 22.6121V9.43177L20.047 9.46585L20.0455 9.46755ZM14.4307 12.0675C14.2204 11.0469 13.8284 10.3603 13.181 9.88668C12.1656 9.14213 11.0045 9.06205 9.92898 9.66519C9.14489 10.1048 8.63869 10.834 8.37882 11.9039C8.34546 12.0326 8.32184 12.1643 8.30823 12.2975C8.24214 12.6757 8.23462 13.238 8.2166 15.8635C8.18956 19.9082 8.23162 20.3887 8.67774 21.307C9.11635 22.2083 10.0251 22.8694 11.015 23.0057C11.3124 23.0466 11.9162 22.9835 12.2647 22.8728C13.0533 22.624 13.8104 21.917 14.1453 21.1145C14.2928 20.7932 14.3889 20.4448 14.4292 20.0854C14.5269 19.484 14.5344 18.5094 14.5344 16.0288C14.5344 12.8649 14.5254 12.519 14.4322 12.0658L14.4307 12.0675ZM11.9057 20.312C11.6774 20.4813 11.3993 20.5413 11.1321 20.479C10.9294 20.4296 10.6545 20.0684 10.5704 19.7396C10.4652 19.3289 10.4577 13.6162 10.5478 12.4968C10.698 11.9363 11.1156 11.6433 11.5723 11.783C11.9283 11.892 12.11 12.1442 12.2136 12.674C12.2903 13.0676 12.2993 13.5566 12.2827 16.4342C12.2722 18.3425 12.2662 19.2761 12.2106 19.777C12.1551 20.0922 12.0619 20.1774 11.9057 20.3137V20.312ZM54.1774 14.9383H55.2469L55.2304 13.8394C55.2139 12.8308 55.2003 12.7166 55.0817 12.4423C54.8939 12.0113 54.6175 11.8187 54.1789 11.8187C53.6517 11.8187 53.3182 12.1084 53.1605 12.7013C53.0929 12.9535 53.0223 14.6896 53.0734 14.8395C53.1019 14.923 53.2551 14.9383 54.1774 14.9383ZM47.0275 12.4389C46.9639 12.2874 46.8615 12.1612 46.7337 12.0767C46.6059 11.9923 46.4586 11.9534 46.311 11.9653C46.0315 11.9895 45.7652 12.1102 45.5479 12.3111L45.3572 12.4764V20.3716L45.5479 20.5369C45.9805 20.9117 46.4552 20.9901 46.7827 20.7414C46.9183 20.6328 47.017 20.4746 47.062 20.2933C47.1477 20.0139 47.1552 19.6544 47.1447 16.332C47.1326 12.87 47.1266 12.6655 47.0275 12.4389Z" fill="#FF0505"/>
<path d="M60.2908 9.14526C60.0775 6.24715 59.9078 5.30668 59.3821 4.09871C58.6836 2.49887 57.6757 1.65551 56.2397 1.4698C55.1297 1.32668 50.9509 1.12393 47.086 1.02682C40.3927 0.858144 29.3884 1.18356 27.9825 1.59076C27.355 1.76543 26.7848 2.14027 26.3392 2.67095C25.4515 3.67276 24.9212 5.11074 24.7094 7.10074C24.2243 11.643 24.2137 17.1291 24.6809 21.8366C24.8822 23.8607 25.2967 25.176 26.0748 26.2596C26.56 26.936 27.3982 27.5101 28.1462 27.6822C28.6719 27.8032 31.3006 27.9702 35.1309 28.1252C35.7017 28.1491 37.2113 28.1882 38.4881 28.2138C41.1468 28.2666 46.036 28.236 48.8314 28.1474C50.712 28.0877 54.1398 27.9293 54.7812 27.8731C54.9614 27.8577 55.379 27.8271 55.7095 27.8066C56.8195 27.735 57.5255 27.4727 58.1879 26.8815C59.0456 26.1165 59.7095 24.704 59.9904 23.0463C60.2563 21.4788 60.4335 18.6863 60.4696 15.5156C60.4996 12.8663 60.4591 11.4385 60.2908 9.14185V9.14526ZM33.6378 8.09574L32.3941 8.11278L32.34 23.157L31.2615 23.1724C30.4279 23.186 30.174 23.1707 30.1545 23.111C30.1395 23.0684 30.1229 19.6762 30.1154 15.5736L30.1019 8.11278L27.673 8.0787V5.72751L34.8515 5.75988L34.8816 8.077L33.6378 8.09574ZM41.2639 16.7185V23.1877H39.2992V22.5062C39.2992 21.9934 39.2827 21.8247 39.2286 21.8247C39.1895 21.8247 39.0123 21.9934 38.8335 22.1995C38.4445 22.6476 37.9849 23.0071 37.5913 23.1741C36.7772 23.5199 36.0051 23.3172 35.6762 22.6749C35.3742 22.0871 35.3697 21.9542 35.3697 15.8513V10.2459H37.333L37.348 15.5242C37.363 20.7104 37.3645 20.8058 37.4742 21.0171C37.6199 21.2965 37.8407 21.3732 38.1922 21.2624C38.3994 21.1977 38.5406 21.0835 38.8756 20.7053L39.2992 20.2283V10.2459H41.2639V16.7151V16.7185ZM48.9276 22.2643C48.7548 22.7021 48.3688 23.1298 48.0518 23.2354C47.2272 23.5114 46.5648 23.2865 45.8002 22.4704C45.5629 22.2166 45.3421 22.0121 45.309 22.0121C45.2685 22.0121 45.2475 22.2097 45.2475 22.5999V23.1877H43.2827V5.72751H45.2475V8.5762C45.2475 10.142 45.2655 11.4249 45.288 11.4249C45.3105 11.4249 45.5178 11.217 45.7491 10.9649C46.2809 10.3839 46.724 10.1283 47.2873 10.0806C48.2922 9.99374 48.8915 10.5815 49.1649 11.9207C49.2505 12.3381 49.258 12.8152 49.258 16.6878C49.258 21.4039 49.2595 21.4243 48.9276 22.2643ZM57.2416 19.6745C57.2314 20.0902 57.1928 20.5043 57.1259 20.9132C56.8526 22.0615 56.1256 22.8759 55.0741 23.2098C53.6591 23.6596 52.1 22.9236 51.4781 21.5112C51.1296 20.7189 51.1161 20.5605 51.1161 16.6878C51.1161 13.5308 51.1266 13.1423 51.2152 12.7112C51.4676 11.493 52.0925 10.7042 53.1514 10.2663C53.4579 10.1403 53.7778 10.0738 54.0977 10.067C55.2408 10.0397 56.3734 10.7366 56.8496 11.8713C57.1695 12.6363 57.2101 12.9651 57.2416 15.1221L57.2701 17.0575L53.0808 17.0899L53.0658 18.3899C53.0433 20.2248 53.1529 20.7888 53.59 21.121C53.9565 21.4021 54.5213 21.38 54.8278 21.075C55.1162 20.7888 55.1973 20.4804 55.2258 19.5808L55.2513 18.792H57.2747L57.2416 19.6745Z" fill="#FC0808"/>
</svg>
