<svg width="28" height="28" viewBox="0 0 28 28" fill="none" xmlns="http://www.w3.org/2000/svg">
<path d="M21.0699 0H6.44996C2.88775 0 0 2.86051 0 6.38912V20.8711C0 24.3997 2.88775 27.2603 6.44996 27.2603H21.0699C24.6321 27.2603 27.5198 24.3997 27.5198 20.8711V6.38912C27.5198 2.86051 24.6321 0 21.0699 0Z" fill="url(#paint0_radial_33_24)"/>
<path d="M21.0699 0H6.44996C2.88775 0 0 2.86051 0 6.38912V20.8711C0 24.3997 2.88775 27.2603 6.44996 27.2603H21.0699C24.6321 27.2603 27.5198 24.3997 27.5198 20.8711V6.38912C27.5198 2.86051 24.6321 0 21.0699 0Z" fill="url(#paint1_radial_33_24)"/>
<path d="M13.7609 2.98157C10.8414 2.98157 10.475 2.99424 9.32839 3.04588C8.18395 3.09785 7.40276 3.27728 6.71927 3.54062C6.01214 3.81258 5.41241 4.17644 4.81492 4.7685C4.21691 5.36045 3.84958 5.95453 3.57417 6.65467C3.30757 7.33192 3.12622 8.10607 3.07472 9.23918C3.02345 10.3751 3.01001 10.7382 3.01001 13.6302C3.01001 16.5222 3.02291 16.8841 3.07494 18.0199C3.12761 19.1535 3.30875 19.9273 3.57438 20.6044C3.84915 21.3048 4.21648 21.8989 4.81417 22.4907C5.41155 23.0831 6.01128 23.4478 6.71788 23.7198C7.4019 23.9831 8.1832 24.1626 9.32742 24.2145C10.4741 24.2662 10.8403 24.2789 13.7596 24.2789C16.6794 24.2789 17.0447 24.2662 18.1913 24.2145C19.3357 24.1626 20.1178 23.9831 20.8018 23.7198C21.5086 23.4478 22.1075 23.0831 22.7048 22.4907C23.3028 21.8989 23.67 21.3048 23.9455 20.6047C24.2097 19.9273 24.3912 19.1533 24.445 18.0201C24.4964 16.8843 24.5099 16.5222 24.5099 13.6302C24.5099 10.7382 24.4964 10.3753 24.445 9.23939C24.3912 8.10575 24.2097 7.33203 23.9455 6.65499C23.67 5.95453 23.3028 5.36045 22.7048 4.7685C22.1068 4.17623 21.5088 3.81237 20.8012 3.54072C20.1158 3.27728 19.3342 3.09774 18.1898 3.04588C17.0431 2.99424 16.678 2.98157 13.7576 2.98157H13.7609ZM12.7965 4.90054C13.0828 4.90011 13.4022 4.90054 13.7609 4.90054C16.6313 4.90054 16.9714 4.91076 18.1049 4.96177C19.153 5.00926 19.7219 5.18273 20.1008 5.3285C20.6025 5.52146 20.9601 5.75221 21.3362 6.12502C21.7124 6.49771 21.9453 6.85263 22.1406 7.3496C22.2878 7.72442 22.4631 8.28795 22.5108 9.32618C22.5623 10.4487 22.5735 10.7859 22.5735 13.6278C22.5735 16.4696 22.5623 16.8069 22.5108 17.9293C22.4629 18.9676 22.2878 19.5311 22.1406 19.906C21.9458 20.403 21.7124 20.7568 21.3362 21.1293C20.9599 21.502 20.6027 21.7327 20.1008 21.9257C19.7223 22.0722 19.153 22.2452 18.1049 22.2927C16.9716 22.3437 16.6313 22.3548 13.7609 22.3548C10.8905 22.3548 10.5502 22.3437 9.41708 22.2927C8.36896 22.2448 7.80007 22.0713 7.42082 21.9255C6.91922 21.7325 6.56082 21.5018 6.18457 21.1291C5.80833 20.7564 5.57548 20.4024 5.38016 19.9052C5.23299 19.5302 5.05766 18.9667 5.00993 17.9285C4.95844 16.8059 4.94812 16.4688 4.94812 13.6251C4.94812 10.7815 4.95844 10.4461 5.00993 9.32352C5.05787 8.28528 5.23299 7.72176 5.38016 7.3464C5.57505 6.84943 5.80833 6.49452 6.18468 6.12182C6.56093 5.74912 6.91922 5.51837 7.42092 5.32499C7.79986 5.17857 8.36896 5.00553 9.41708 4.95783C10.4088 4.91342 10.7931 4.90011 12.7965 4.89788V4.90054ZM19.4992 6.66862C18.787 6.66862 18.2092 7.24045 18.2092 7.94602C18.2092 8.65149 18.787 9.22385 19.4992 9.22385C20.2114 9.22385 20.7892 8.65149 20.7892 7.94602C20.7892 7.24056 20.2114 6.6682 19.4992 6.6682V6.66862ZM13.7609 8.16165C10.7122 8.16165 8.24039 10.6102 8.24039 13.6302C8.24039 16.6502 10.7122 19.0976 13.7609 19.0976C16.8097 19.0976 19.2807 16.6502 19.2807 13.6302C19.2807 10.6103 16.8095 8.16165 13.7607 8.16165H13.7609ZM13.7609 10.0806C15.7399 10.0806 17.3443 11.6697 17.3443 13.6302C17.3443 15.5905 15.7399 17.1798 13.7609 17.1798C11.7818 17.1798 10.1776 15.5905 10.1776 13.6302C10.1776 11.6697 11.7818 10.0806 13.7609 10.0806Z" fill="white"/>
<defs>
<radialGradient id="paint0_radial_33_24" cx="0" cy="0" r="1" gradientUnits="userSpaceOnUse" gradientTransform="translate(7.30996 29.3598) rotate(-90) scale(27.0169 25.3672)">
<stop stop-color="#FFDD55"/>
<stop offset="0.1" stop-color="#FFDD55"/>
<stop offset="0.5" stop-color="#FF543E"/>
<stop offset="1" stop-color="#C837AB"/>
</radialGradient>
<radialGradient id="paint1_radial_33_24" cx="0" cy="0" r="1" gradientUnits="userSpaceOnUse" gradientTransform="translate(-4.60968 1.9637) rotate(78.576) scale(12.0812 50.2361)">
<stop stop-color="#3771C8"/>
<stop offset="0.128" stop-color="#3771C8"/>
<stop offset="1" stop-color="#6600FF" stop-opacity="0"/>
</radialGradient>
</defs>
</svg>
