<svg width="49" height="49" viewBox="0 0 49 49" fill="none" xmlns="http://www.w3.org/2000/svg">
<g filter="url(#filter0_d_31_9)">
<path d="M5.68939 20.2676C5.68846 23.7145 6.56883 27.0803 8.24285 30.0469L5.5293 40.1828L15.6685 37.463C18.4729 39.0249 21.615 39.8432 24.808 39.8435H24.8164C35.357 39.8435 43.9374 31.0685 43.9419 20.283C43.9439 15.0566 41.9563 10.1421 38.3449 6.44465C34.7342 2.74754 29.9321 0.710393 24.8156 0.708008C14.2737 0.708008 5.6939 9.48249 5.68955 20.2676" fill="url(#paint0_linear_31_9)"/>
<path d="M5.00652 20.2611C5.00544 23.8321 5.91736 27.3182 7.65106 30.3911L4.84021 40.8904L15.343 38.0731C18.2368 39.6873 21.495 40.5383 24.8104 40.5396H24.8189C35.7378 40.5396 44.6264 31.449 44.6311 20.2773C44.6329 14.8632 42.5737 9.77198 38.8334 5.94209C35.0926 2.11268 30.1187 0.00222622 24.8189 0C13.8982 0 5.01088 9.08933 5.00652 20.2611ZM11.2613 29.8618L10.8691 29.225C9.22062 26.5434 8.35051 23.4445 8.35175 20.2624C8.35517 10.9767 15.742 3.42201 24.8252 3.42201C29.2239 3.42392 33.3578 5.17818 36.4671 8.36104C39.5762 11.5442 41.2871 15.7756 41.286 20.2761C41.2819 29.5618 33.895 37.1174 24.8189 37.1174H24.8124C21.8572 37.1158 18.9588 36.3039 16.4312 34.7695L15.8296 34.4046L9.59708 36.0763L11.2613 29.8618Z" fill="url(#paint1_linear_31_9)"/>
<path d="M19.8671 11.7908C19.4963 10.9475 19.106 10.9305 18.7533 10.9157C18.4645 10.903 18.1344 10.9039 17.8045 10.9039C17.4744 10.9039 16.938 11.031 16.4846 11.5375C16.0307 12.0444 14.7518 13.2695 14.7518 15.7611C14.7518 18.2527 16.5258 20.6608 16.7731 20.9991C17.0207 21.3366 20.1977 26.6134 25.2294 28.6434C29.4112 30.3304 30.2622 29.9949 31.1698 29.9103C32.0775 29.826 34.0987 28.6855 34.5111 27.5029C34.9238 26.3205 34.9238 25.3069 34.8 25.0951C34.6763 24.8841 34.3462 24.7574 33.8511 24.5042C33.3561 24.2511 30.9221 23.0257 30.4684 22.8567C30.0146 22.6878 29.6846 22.6035 29.3545 23.1106C29.0243 23.6169 28.0763 24.7574 27.7874 25.0951C27.4987 25.4337 27.2098 25.4758 26.7149 25.2225C26.2195 24.9684 24.6252 24.4343 22.7338 22.7091C21.2621 21.3667 20.2686 19.709 19.9798 19.2019C19.691 18.6956 19.9489 18.4211 20.1971 18.1687C20.4195 17.9418 20.6923 17.5774 20.9401 17.2817C21.1869 16.986 21.2693 16.775 21.4344 16.4372C21.5996 16.0991 21.5169 15.8034 21.3933 15.5501C21.2693 15.2968 20.3073 12.7921 19.8671 11.7908Z" fill="white"/>
</g>
<defs>
<filter id="filter0_d_31_9" x="0.84021" y="0" width="47.7909" height="48.8904" filterUnits="userSpaceOnUse" color-interpolation-filters="sRGB">
<feFlood flood-opacity="0" result="BackgroundImageFix"/>
<feColorMatrix in="SourceAlpha" type="matrix" values="0 0 0 0 0 0 0 0 0 0 0 0 0 0 0 0 0 0 127 0" result="hardAlpha"/>
<feOffset dy="4"/>
<feGaussianBlur stdDeviation="2"/>
<feComposite in2="hardAlpha" operator="out"/>
<feColorMatrix type="matrix" values="0 0 0 0 0 0 0 0 0 0 0 0 0 0 0 0 0 0 0.25 0"/>
<feBlend mode="normal" in2="BackgroundImageFix" result="effect1_dropShadow_31_9"/>
<feBlend mode="normal" in="SourceGraphic" in2="effect1_dropShadow_31_9" result="shape"/>
</filter>
<linearGradient id="paint0_linear_31_9" x1="1926.16" y1="3948.19" x2="1926.16" y2="0.708008" gradientUnits="userSpaceOnUse">
<stop stop-color="#1FAF38"/>
<stop offset="1" stop-color="#60D669"/>
</linearGradient>
<linearGradient id="paint1_linear_31_9" x1="1994.38" y1="4089.04" x2="1994.38" y2="0" gradientUnits="userSpaceOnUse">
<stop stop-color="#F9F9F9"/>
<stop offset="1" stop-color="white"/>
</linearGradient>
</defs>
</svg>
