<svg width="56" height="56" viewBox="0 0 56 56" fill="none" xmlns="http://www.w3.org/2000/svg">
<path d="M28.0425 37.2687C33.1742 37.2687 37.3342 33.1087 37.3342 27.977C37.3342 22.8453 33.1742 18.6852 28.0425 18.6852C22.9107 18.6852 18.7507 22.8453 18.7507 27.977C18.7507 33.1087 22.9107 37.2687 28.0425 37.2687Z" stroke="black" stroke-width="4.64589" stroke-linecap="round" stroke-linejoin="round"/>
<path d="M37.3341 18.6852V30.2999C37.3341 32.1482 38.0683 33.9207 39.3752 35.2276C40.6822 36.5345 42.4547 37.2688 44.303 37.2688C46.1512 37.2688 47.9238 36.5345 49.2307 35.2276C50.5376 33.9207 51.2718 32.1482 51.2718 30.2999V27.977C51.2715 22.7342 49.4976 17.6456 46.2386 13.5388C42.9796 9.43194 38.4272 6.54833 33.3216 5.35682C28.2159 4.16532 22.8574 4.736 18.1172 6.97608C13.377 9.21615 9.53404 12.9939 7.21309 17.695C4.89214 22.3961 4.22975 27.7441 5.33362 32.8694C6.43748 37.9947 9.24269 42.5958 13.2931 45.9247C17.3435 49.2535 22.4009 51.1143 27.643 51.2045C32.885 51.2946 38.0034 49.6088 42.1659 46.4212" stroke="black" stroke-width="4.64589" stroke-linecap="round" stroke-linejoin="round"/>
</svg>
