<svg width="57" height="57" viewBox="0 0 57 57" fill="none" xmlns="http://www.w3.org/2000/svg">
<g clip-path="url(#clip0_41_133)">
<path d="M20.0415 2.5836C14.4712 4.516 9.66732 8.18378 6.33555 13.0482C3.00378 17.9126 1.31973 23.7172 1.53076 29.6095C1.74179 35.5017 3.83677 41.171 7.50799 45.7846C11.1792 50.3982 16.2332 53.7129 21.9275 55.2419C26.544 56.4331 31.3807 56.4854 36.022 55.3943C40.2264 54.4499 44.1136 52.4298 47.3028 49.5318C50.622 46.4234 53.0313 42.4692 54.2716 38.0942C55.6197 33.3365 55.8596 28.3332 54.9728 23.4683H29.0488V34.2221H44.0622C43.7622 35.9373 43.1192 37.5742 42.1717 39.0351C41.2243 40.496 39.9918 41.7506 38.5482 42.7241C36.7148 43.9368 34.6482 44.7528 32.4809 45.1196C30.3073 45.5238 28.0777 45.5238 25.9041 45.1196C23.701 44.6641 21.6169 43.7549 19.7846 42.4497C16.8409 40.366 14.6306 37.4057 13.4691 33.9913C12.2879 30.5129 12.2879 26.742 13.4691 23.2636C14.2959 20.8255 15.6626 18.6055 17.4674 16.7695C19.5328 14.6299 22.1476 13.1004 25.0249 12.349C27.9023 11.5976 30.931 11.6532 33.7789 12.5098C36.0035 13.1927 38.0379 14.3859 39.7198 15.9942C41.4126 14.3101 43.1026 12.6216 44.7896 10.9288C45.6607 10.0185 46.6102 9.15172 47.4683 8.21964C44.901 5.83053 41.8875 3.97151 38.6004 2.74911C32.6146 0.575656 26.0651 0.517246 20.0415 2.5836Z" fill="white"/>
<path d="M20.042 2.58364C26.0651 0.515883 32.6146 0.572755 38.6009 2.74479C41.8885 3.9755 44.9007 5.84348 47.4644 8.24146C46.5933 9.17354 45.6743 10.0446 44.7857 10.9506C43.0958 12.6376 41.4073 14.3189 39.7203 15.9943C38.0384 14.386 36.004 13.1928 33.7793 12.5099C30.9325 11.6503 27.9038 11.5914 25.0257 12.3398C22.1476 13.0881 19.5312 14.6147 17.4636 16.7522C15.6588 18.5882 14.292 20.8081 13.4652 23.2462L4.43619 16.2556C7.66802 9.84674 13.2637 4.94444 20.042 2.58364Z" fill="#E33629"/>
<path d="M2.03998 23.1809C2.52528 20.7757 3.33097 18.4466 4.43552 16.2556L13.4645 23.2637C12.2834 26.742 12.2834 30.513 13.4645 33.9913C10.4563 36.3142 7.44664 38.6488 4.43552 40.995C1.67042 35.491 0.82711 29.2198 2.03998 23.1809Z" fill="#F8BD00"/>
<path d="M29.0486 23.464H54.9727C55.8594 28.3288 55.6196 33.3322 54.2714 38.0898C53.0311 42.4649 50.6219 46.4191 47.3026 49.5274C44.3887 47.2538 41.4618 44.9977 38.548 42.7241C39.9926 41.7497 41.2256 40.4936 42.1731 39.0312C43.1206 37.5688 43.7631 35.9301 44.0621 34.2134H29.0486C29.0442 30.6332 29.0486 27.0486 29.0486 23.464Z" fill="#587DBD"/>
<path d="M4.43158 40.9949C7.4427 38.6719 10.4524 36.3374 13.4606 33.9912C14.6244 37.4068 16.8379 40.3672 19.7848 42.4496C21.6229 43.7487 23.7114 44.6506 25.9174 45.0978C28.091 45.502 30.3206 45.502 32.4942 45.0978C34.6615 44.7309 36.7281 43.915 38.5615 42.7023C41.4753 44.9758 44.4022 47.232 47.3161 49.5056C44.1273 52.4052 40.2402 54.4268 36.0353 55.3725C31.394 56.4636 26.5573 56.4112 21.9408 55.22C18.2896 54.2451 14.8791 52.5265 11.9231 50.172C8.79434 47.688 6.23893 44.5576 4.43158 40.9949Z" fill="#319F43"/>
</g>
<defs>
<clipPath id="clip0_41_133">
<rect width="55.7507" height="55.7507" fill="white" transform="translate(0.620331 0.75)"/>
</clipPath>
</defs>
</svg>
