<svg width="56" height="57" viewBox="0 0 56 57" fill="none" xmlns="http://www.w3.org/2000/svg">
<path d="M44.303 26.3848H11.7818C9.2159 26.3848 7.13586 28.4649 7.13586 31.0307V47.2913C7.13586 49.8572 9.2159 51.9372 11.7818 51.9372H44.303C46.8688 51.9372 48.9489 49.8572 48.9489 47.2913V31.0307C48.9489 28.4649 46.8688 26.3848 44.303 26.3848Z" stroke="black" stroke-width="4.64589" stroke-linecap="round" stroke-linejoin="round"/>
<path d="M16.4277 26.3849V17.0931C16.4277 14.0127 17.6514 11.0585 19.8295 8.88027C22.0077 6.70208 24.962 5.47839 28.0424 5.47839C31.1228 5.47839 34.0771 6.70208 36.2553 8.88027C38.4334 11.0585 39.6571 14.0127 39.6571 17.0931V26.3849" stroke="black" stroke-width="4.64589" stroke-linecap="round" stroke-linejoin="round"/>
</svg>
